<?xml version="1.0" encoding="UTF-8"?>
<svg xmlns="http://www.w3.org/2000/svg" width="480" height="640" viewBox="0 0 480 640">
  <rect width="480" height="640" fill="#f5f5f5" />
  <circle cx="240" cy="200" r="110" fill="#f3d7c4" />
  <circle cx="200" cy="190" r="12" fill="#2f2f2f" />
  <circle cx="280" cy="190" r="12" fill="#2f2f2f" />
  <path d="M190 250 Q240 290 290 250" fill="none" stroke="#c97c5d" stroke-width="12" stroke-linecap="round" />
  <path d="M140 470 C160 380 320 380 340 470" fill="#3a6ea5" />
  <path d="M120 470 Q240 360 360 470" fill="#d1dbee" />
  <rect x="120" y="470" width="240" height="130" rx="40" ry="40" fill="#ffffff" />
  <path d="M120 470 C120 390 180 330 240 330 C300 330 360 390 360 470" fill="#f3d7c4" />
  <path d="M155 145 Q240 60 325 145" fill="#2f2f2f" />
  <path d="M145 210 Q180 150 200 160" fill="#2f2f2f" />
  <path d="M335 210 Q300 150 280 160" fill="#2f2f2f" />
  <text x="50%" y="600" text-anchor="middle" font-family="'Inter', 'Segoe UI', sans-serif" font-size="36" fill="#3a3a3a">
    Sample Headshot
  </text>
</svg>
